<svg width="37" height="37" viewBox="0 0 37 37" fill="none" xmlns="http://www.w3.org/2000/svg">
<path d="M36.0346 18.1222C36.0346 27.9664 28.0536 35.9448 18.2121 35.9448C-5.43154 35.005 -5.42337 1.2339 18.2121 0.296875C28.0563 0.296875 36.0346 8.27795 36.0346 18.1195V18.1222Z" fill="white"/>
<path d="M33.5313 18.1222C33.5313 26.58 26.6752 33.4361 18.2175 33.4361C-2.09475 32.6298 -2.0893 3.6119 18.2175 2.80835C26.6752 2.80835 33.5313 9.66445 33.5313 18.1222Z" fill="black"/>
<path d="M18.2176 36.3397C8.17175 36.3397 0 28.168 0 18.1222C0.999677 -6.04442 35.4381 -6.03897 36.4351 18.1222C36.4351 28.168 28.2634 36.3397 18.2176 36.3397ZM18.2176 1.31832C8.95079 1.31832 1.41099 8.8554 1.41099 18.1222C2.3344 40.4174 34.1007 40.412 35.0214 18.1222C35.0214 8.8554 27.4816 1.3156 18.2148 1.3156L18.2176 1.31832Z" fill="#EF8626"/>
<path d="M23.5916 19.3261C22.7499 19.3261 21.9518 19.13 21.2435 18.7758C21.3607 18.6478 21.4642 18.5116 21.5459 18.37C21.5459 18.37 21.5459 18.3673 21.5486 18.3645C21.5731 18.321 21.5977 18.2774 21.6194 18.2311C21.6957 18.0785 21.7502 17.9205 21.7829 17.7571C21.7938 17.7053 21.8019 17.6536 21.8101 17.6018C21.8346 17.4357 21.8292 17.2613 21.7992 17.0979C21.7965 17.0788 21.791 17.0598 21.7856 17.0407C21.6303 16.2617 20.9766 15.5916 20.045 15.1884C20.045 15.1884 20.045 15.1884 20.0396 15.1884C20.0096 15.1748 19.9769 15.1612 19.947 15.1476C19.9197 15.1367 19.8898 15.1258 19.8625 15.1149C19.8434 15.1067 19.8244 15.1013 19.8053 15.0931C19.7917 15.0877 19.7781 15.0822 19.7645 15.0768C19.7481 15.0686 19.7318 15.0631 19.7127 15.0577C19.6936 15.0523 19.6746 15.0468 19.6555 15.0386C19.4948 14.9814 19.3259 14.9351 19.1516 14.897C19.1025 14.8861 19.0535 14.8779 19.0045 14.867C18.822 14.8316 18.634 14.8071 18.4434 14.7935C18.4052 14.788 18.3671 14.7853 18.329 14.7853C18.22 14.7771 18.111 14.7744 18.0021 14.7744H17.9367C17.9013 14.7744 17.8659 14.7771 17.8278 14.7771C17.6371 14.7826 17.4519 14.7989 17.2693 14.8262C17.2693 14.8262 17.2693 14.8262 17.2666 14.8262C17.2203 14.8289 17.1767 14.8371 17.1332 14.8425V14.8452C16.9398 14.8752 16.7518 14.9161 16.5775 14.9678C16.5094 14.9869 16.4413 15.0087 16.3732 15.0277C16.3677 15.0332 16.3596 15.0332 16.3514 15.0386C16.3187 15.0495 16.2887 15.0631 16.2561 15.074C16.1988 15.0931 16.1444 15.1149 16.0899 15.1367C16.0763 15.1421 16.0627 15.1449 16.049 15.153C16.0218 15.1639 15.9946 15.1748 15.9673 15.1884C15.0139 15.6025 14.3439 16.2944 14.2131 17.0979C14.2104 17.1224 14.2077 17.1469 14.2022 17.1687C14.175 17.3485 14.1832 17.5365 14.2186 17.7135C14.2267 17.7571 14.2376 17.8007 14.2485 17.8443C14.2921 18.0104 14.3575 18.1711 14.4419 18.3237C14.4501 18.3373 14.4555 18.3482 14.4637 18.3618C14.4801 18.3891 14.4964 18.4163 14.5155 18.4435C14.6081 18.5879 14.7198 18.7268 14.8478 18.8576C13.603 19.4432 11.9686 19.4759 10.6965 18.9366C10.209 19.879 9.89571 20.925 9.79492 22.0309C9.81127 22.0445 9.83306 22.0582 9.8494 22.0691C9.98015 22.1644 10.1218 22.2597 10.2743 22.3523C10.3179 22.3796 10.3615 22.4068 10.4078 22.4341C10.4378 22.4531 10.4705 22.4695 10.5004 22.4885C10.5631 22.524 10.623 22.5621 10.6884 22.5975C10.7919 22.6547 10.8981 22.7092 11.0098 22.7664C11.6009 23.0606 12.3064 23.3384 13.1481 23.5645L14.3874 23.8369C15.2645 23.9976 16.2588 24.1011 17.3865 24.1283C17.7379 24.1392 18.1192 24.1392 18.4733 24.1283C18.5251 24.1283 18.5796 24.1283 18.6286 24.1283C19.8516 24.0984 20.9112 23.9785 21.8319 23.8042C22.2786 23.717 22.6899 23.619 23.0713 23.51C24.0274 23.2403 24.7874 22.9108 25.3839 22.5784C25.6209 22.4477 25.8306 22.3169 26.0186 22.1889C26.2419 22.0364 26.438 21.8866 26.6124 21.7367C26.4844 20.7153 26.1738 19.7537 25.7162 18.8794C25.0652 19.1654 24.3488 19.3234 23.5943 19.3234L23.5916 19.3261ZM16.3269 16.722C16.3705 16.722 16.414 16.7302 16.4549 16.7356C16.5693 16.7493 16.6783 16.7819 16.779 16.831C17.1304 16.9999 17.3592 17.3512 17.362 17.7571H15.2918C15.2918 17.5501 15.3544 17.3567 15.4607 17.196C15.5723 17.0244 15.7331 16.8854 15.9237 16.8037C16.049 16.752 16.1852 16.722 16.3269 16.722ZM19.1243 16.8854C19.2169 16.8282 19.3177 16.7847 19.4267 16.7574C19.5493 16.7247 19.6855 16.7111 19.8108 16.7356C20.2902 16.7956 20.6661 17.1851 20.7069 17.6699C20.7069 17.6999 20.7151 17.7271 20.7151 17.7571H18.6449C18.6449 17.3894 18.8356 17.0707 19.1243 16.8854Z" fill="white"/>
<path d="M23.0688 28.4866C22.6848 28.661 22.2707 28.8162 21.8294 28.947C20.8951 29.2303 19.8301 29.4128 18.6261 29.4591C18.223 29.4782 17.7899 29.4782 17.3867 29.4591C16.2699 29.4182 15.273 29.2575 14.3877 29.0069C13.9492 28.8843 13.5351 28.74 13.1483 28.5738C12.3693 28.2469 11.6965 27.8465 11.1108 27.3944C14.5784 32.8558 22.8564 32.4254 25.7573 26.6616C25.6375 26.776 25.5149 26.8904 25.3842 27.0048C24.7413 27.5687 23.9786 28.0781 23.0716 28.4866H23.0688Z" fill="white"/>
<path d="M13.1456 24.548C12.3284 24.3464 11.6202 24.1012 11.0073 23.8289V26.1115C11.5902 26.6563 12.2957 27.1548 13.1456 27.5525V24.548Z" fill="white"/>
<path d="M17.3838 25.0736C16.2697 25.0491 15.2728 24.951 14.3848 24.804V28.0318C15.2564 28.2987 16.2506 28.4703 17.3838 28.5167V25.0736Z" fill="white"/>
<path d="M21.8293 24.7686C20.8896 24.9374 19.8272 25.0464 18.626 25.0736V28.5167C19.849 28.4676 20.9086 28.2688 21.8293 27.9664V24.7686Z" fill="white"/>
<path d="M25.3815 23.6545C24.7359 23.9705 23.9705 24.262 23.0688 24.4962V27.4544C24.0168 26.9777 24.7767 26.3785 25.3815 25.7329V23.6545Z" fill="white"/>
<path d="M12.628 14.2107C13.6222 14.1862 13.6222 12.7262 12.628 12.7017C11.6338 12.7262 11.6338 14.1862 12.628 14.2107Z" fill="white"/>
<path d="M23.5919 14.2107C24.5861 14.1862 24.5861 12.7262 23.5919 12.7017C22.5976 12.7262 22.5976 14.1862 23.5919 14.2107Z" fill="white"/>
</svg>
